<svg xmlns="http://www.w3.org/2000/svg" viewBox="0 0 32 32">
  <!-- Background -->
  <rect width="32" height="32" rx="8" fill="#0e0e12"/>
  <!-- Trophy cup body -->
  <polygon points="9,6 23,6 21,18 11,18" fill="#D4AF37"/>
  <!-- Trophy handles -->
  <path d="M9,8 Q5,8 5,13 Q5,17 9,17" fill="none" stroke="#D4AF37" stroke-width="2" stroke-linecap="round"/>
  <path d="M23,8 Q27,8 27,13 Q27,17 23,17" fill="none" stroke="#D4AF37" stroke-width="2" stroke-linecap="round"/>
  <!-- Stem -->
  <rect x="14.5" y="18" width="3" height="5" fill="#D4AF37"/>
  <!-- Base -->
  <rect x="10" y="23" width="12" height="3" rx="1.5" fill="#D4AF37"/>
  <!-- Star on cup -->
  <polygon points="16,9 16.8,11.5 19.5,11.5 17.4,13 18.2,15.5 16,14 13.8,15.5 14.6,13 12.5,11.5 15.2,11.5" fill="#0e0e12"/>
</svg>
